<svg width="552" height="687" viewBox="0 0 552 687" fill="none" xmlns="http://www.w3.org/2000/svg">
<path d="M96.5545 321.045L60.4505 325.675L59.8983 325.938C59.1148 326.373 58.453 326.998 57.9734 327.755C57.4938 328.512 57.2118 329.378 57.1532 330.272C57.0945 331.167 57.2612 332.061 57.6378 332.875C58.0145 333.688 58.5891 334.394 59.3091 334.928L94.2021 346.506L77.6928 379.354L77.6303 379.96C77.5993 380.857 77.794 381.747 78.1963 382.548C78.5987 383.35 79.1959 384.038 79.9331 384.549C80.6704 385.06 81.5242 385.378 82.4162 385.473C83.3082 385.569 84.2099 385.439 85.0386 385.095L113.402 361.759L134.609 390.762L135.197 391.145C135.954 391.565 136.802 391.795 137.667 391.816C138.532 391.837 139.39 391.648 140.166 391.265C140.943 390.882 141.615 390.317 142.125 389.618C142.636 388.919 142.969 388.106 143.097 387.25L139.811 350.831L174.169 348.213L174.721 347.95C175.505 347.514 176.167 346.89 176.646 346.132C177.126 345.375 177.408 344.51 177.466 343.616C177.525 342.721 177.358 341.826 176.982 341.013C176.605 340.2 176.031 339.494 175.31 338.96L140.418 327.382L156.927 294.534L156.989 293.928C157.02 293.031 156.826 292.141 156.423 291.339C156.021 290.538 155.424 289.85 154.686 289.339C153.949 288.828 153.095 288.51 152.203 288.414C151.311 288.319 150.41 288.449 149.581 288.793L122.964 310.117L100.01 283.126C99.267 282.576 98.3942 282.227 97.4766 282.115C96.559 282.002 95.6277 282.128 94.7735 282.482C93.9192 282.835 93.1709 283.404 92.6013 284.132C92.0317 284.86 91.6603 285.723 91.523 286.638L96.5545 321.045Z" fill="black"/>
<path d="M479.522 338.826L446.912 322.653L446.307 322.566C445.413 322.494 444.516 322.646 443.697 323.01C442.878 323.375 442.163 323.938 441.619 324.65C441.074 325.362 440.716 326.199 440.578 327.084C440.441 327.97 440.527 328.876 440.831 329.719L463.443 358.706L431.487 376.883L431.099 377.352C430.576 378.081 430.244 378.93 430.134 379.82C430.024 380.71 430.14 381.614 430.47 382.448C430.8 383.282 431.334 384.02 432.023 384.594C432.713 385.168 433.535 385.56 434.415 385.734L470.959 382.048L472.52 417.943L472.796 418.588C473.193 419.357 473.771 420.019 474.479 420.516C475.188 421.013 476.006 421.332 476.865 421.444C477.723 421.556 478.596 421.458 479.408 421.16C480.221 420.861 480.949 420.37 481.53 419.728L498.995 387.602L529.036 404.479L529.642 404.567C530.535 404.639 531.432 404.486 532.251 404.122C533.07 403.758 533.785 403.194 534.33 402.483C534.875 401.771 535.232 400.934 535.37 400.048C535.508 399.163 535.421 398.257 535.118 397.413L512.506 368.426L544.462 350.25L544.85 349.78C545.373 349.052 545.704 348.203 545.814 347.313C545.924 346.422 545.809 345.519 545.479 344.685C545.149 343.85 544.614 343.112 543.925 342.538C543.236 341.964 542.413 341.572 541.533 341.399L507.558 344.38L503.429 309.19C503.115 308.32 502.582 307.546 501.881 306.943C501.18 306.34 500.335 305.929 499.428 305.749C498.522 305.57 497.584 305.628 496.706 305.918C495.828 306.208 495.04 306.72 494.419 307.405L479.522 338.826Z" fill="black"/>
<path d="M19.2904 310.796C20.0571 310.623 20.8238 310.451 21.6138 310.272C21.8688 311.729 22.147 313.18 22.4073 314.659C31.879 365.236 49.4012 401.595 91.4923 433.222C101.952 441.689 110.967 446.063 122.283 453.602C138.891 464.458 155.496 474.217 173.321 482.894C183.996 488.228 194.294 494.159 204.619 500.108C215.944 506.589 227.381 512.922 239.032 518.792C251.63 525.181 262.723 532.911 273.935 541.492C275.98 542.984 278.031 544.5 280.139 546.051C297.185 560.91 306.155 573.952 311.097 595.984C311.469 597.633 311.846 599.306 312.228 601.002C314.751 612.739 315.72 622.994 314.519 634.887C311.009 630.795 307.933 626.898 305.286 622.197C284.289 585.693 233.799 563.162 196.966 546.634C189.5 543.19 182.052 539.717 174.61 536.268C168.064 533.226 161.553 530.226 154.977 527.265C99.3324 502.014 44.6372 467.002 21.6519 407.923C11.3733 376.621 11.1822 342.63 19.2904 310.796Z" fill="#DC0428"/>
<path d="M309.174 6.13631C339.644 9.469 370.091 10.8021 400.728 10.8735C405.977 10.8973 411.227 10.9925 416.476 11.0639C435.923 11.2068 453.484 9.73085 472 3.16069C469.447 18.015 462.074 24.7518 450.525 34.1071C422.393 52.1513 385.051 49.009 353.054 48.6758C345.586 48.6043 338.093 48.5805 330.625 48.5329C309.389 48.4377 288.153 48.2949 266.917 48.1282C253.889 48.0092 240.837 47.9616 227.785 47.914C222.846 47.8902 217.907 47.8426 212.968 47.795C206.048 47.7236 199.128 47.676 192.209 47.676C190.204 47.6283 188.2 47.6045 186.124 47.5569C149.021 47.6283 124.062 67.4817 98.5791 92.2864C97.3861 93.5243 96.2169 94.7383 95 96C109.03 58.531 135.205 27.2275 171.999 10.3974C216.308 -6.31368 263.362 0.899217 309.174 6.13631Z" fill="#DB0428"/>
<path d="M222.124 127.917C222.423 126.657 222.757 125.405 223.079 124.15C224.214 119.487 224.449 115.097 222.232 109.907C229.397 112.184 232.307 114.711 236.276 118.537C243.942 127.721 239.272 138.781 236.807 148.997C235.598 154.095 234.365 159.189 233.121 164.279C227.909 185.358 227.321 194.632 245.623 209.72C246.167 210.145 246.7 210.562 247.254 210.996C229.594 203.428 215.632 193.628 209.369 182.893C201.232 165.294 218.112 145.166 222.124 127.917Z" fill="black"/>
<path d="M268.742 125.86C272.049 118.902 274.371 111.726 276.083 104.364C277.543 98.2131 278.813 92.4883 276.192 86.3537C283.357 88.6301 286.267 91.1578 290.236 94.9831C297.57 103.77 293.981 112.403 292.065 120.063C289.584 130.062 287.194 140.088 284.833 150.116C281.008 166.192 287.134 175.903 299.583 186.166C300.127 186.592 300.66 187.009 301.214 187.443C283.554 179.874 269.592 170.074 263.328 159.339C257.535 146.809 263.658 136.296 268.742 125.86Z" fill="black"/>
<path d="M346.062 149.419C341.052 138.879 333.633 121.565 338.612 109.913C331.446 112.19 328.537 114.717 324.568 118.542C317.234 127.33 320.823 135.962 322.739 143.623C328.544 167.015 337.054 191.727 315.221 209.725C314.677 210.151 314.144 210.568 313.59 211.002C331.25 203.434 345.212 193.633 351.475 182.898C357.268 170.368 351.145 159.855 346.062 149.419Z" fill="black"/>
<path d="M369.588 412.174L206.592 409.484L179 405C179 425.951 199.127 440.646 217.118 443H356.882C377.898 443 391.279 428.54 395 405L369.588 412.174Z" fill="black"/>
<path d="M384.377 246.049L371.388 247.176V234.44C371.388 231.063 370.055 227.823 367.682 225.435C365.309 223.047 362.203 219 358.847 219H207.012C203.656 219 200.326 223.047 197.953 225.435C195.58 227.823 194.247 231.063 194.247 234.44L191 350.604C191 364.114 199.58 375.526 209.071 385.08C218.563 394.633 231.436 400 244.859 400H320.777C344.286 400 368.084 386.98 373.74 365.062L384.041 361.794C394.108 361.794 405.475 357.769 412.594 350.604C419.713 343.439 422 333.721 422 323.588V285.382C422 275.249 418.001 265.531 410.882 258.366C403.763 251.201 394.444 246.049 384.377 246.049ZM396.694 323.588C396.694 326.965 395.361 330.205 392.988 332.593C390.615 334.981 387.397 336.323 384.041 336.323L376.315 332.593L371.388 272.646L381.69 274.337C385.045 274.337 390.615 273.988 392.988 276.376C395.361 278.765 395.126 282.004 395.126 285.382L396.694 323.588Z" fill="black"/>
<path d="M109.614 145.571L76.8419 129.731L76.2355 129.65C75.3415 129.587 74.4458 129.749 73.6305 130.121C72.8153 130.494 72.1064 131.065 71.5689 131.782C71.0313 132.499 70.6822 133.339 70.5536 134.226C70.4249 135.113 70.5208 136.019 70.8325 136.859L93.7391 165.614L61.9698 184.115L61.5866 184.588C61.071 185.323 60.748 186.174 60.6472 187.066C60.5463 187.957 60.6709 188.86 61.0094 189.69C61.3479 190.521 61.8896 191.254 62.5847 191.821C63.2799 192.388 64.1063 192.771 64.9881 192.936L101.492 188.878L103.419 224.755L103.702 225.397C104.107 226.162 104.691 226.818 105.404 227.308C106.118 227.798 106.94 228.108 107.799 228.212C108.659 228.315 109.53 228.208 110.34 227.901C111.149 227.594 111.872 227.096 112.447 226.448L129.583 194.146L159.795 210.717L160.402 210.798C161.296 210.861 162.191 210.699 163.007 210.327C163.822 209.954 164.531 209.383 165.068 208.666C165.606 207.949 165.955 207.108 166.083 206.221C166.212 205.334 166.116 204.429 165.805 203.589L142.898 174.834L174.667 156.333L175.05 155.859C175.566 155.125 175.889 154.273 175.99 153.382C176.091 152.491 175.966 151.588 175.628 150.757C175.289 149.927 174.747 149.194 174.052 148.627C173.357 148.06 172.531 147.677 171.649 147.512L137.705 150.839L133.218 115.693C132.896 114.826 132.355 114.058 131.648 113.462C130.941 112.866 130.092 112.464 129.183 112.293C128.275 112.123 127.337 112.19 126.462 112.489C125.587 112.788 124.805 113.309 124.191 113.999L109.614 145.571Z" fill="black"/>
<path d="M444.695 129.915L408.368 127.618L407.776 127.771C406.925 128.05 406.156 128.538 405.542 129.191C404.927 129.843 404.487 130.64 404.259 131.507C404.032 132.374 404.026 133.284 404.242 134.154C404.458 135.024 404.888 135.826 405.494 136.486L437.56 154.468L415.124 183.592L414.948 184.175C414.748 185.05 414.77 185.96 415.013 186.824C415.256 187.687 415.712 188.476 416.339 189.117C416.966 189.759 417.744 190.233 418.602 190.496C419.46 190.758 420.37 190.801 421.249 190.621L453.521 173.084L468.847 205.581L469.351 206.068C470.015 206.624 470.803 207.011 471.649 207.195C472.495 207.38 473.373 207.357 474.208 207.128C475.043 206.899 475.81 206.472 476.443 205.882C477.077 205.292 477.558 204.557 477.846 203.741L481.522 167.36L515.754 171.301L516.346 171.147C517.198 170.868 517.966 170.38 518.581 169.728C519.195 169.075 519.636 168.279 519.863 167.412C520.09 166.545 520.096 165.635 519.88 164.765C519.665 163.895 519.234 163.093 518.628 162.432L486.563 144.45L508.998 115.326L509.175 114.743C509.375 113.869 509.352 112.958 509.109 112.095C508.866 111.231 508.41 110.443 507.783 109.801C507.156 109.159 506.378 108.686 505.52 108.423C504.663 108.16 503.753 108.117 502.874 108.297L472.697 124.191L455.276 93.3378C454.65 92.6569 453.859 92.1495 452.979 91.8648C452.1 91.58 451.162 91.5277 450.256 91.7129C449.35 91.8981 448.508 92.3144 447.81 92.9215C447.113 93.5286 446.585 94.3058 446.277 95.1775L444.695 129.915Z" fill="black"/>
</svg>
