<svg width="430" height="160" viewBox="0 0 430 160" fill="none" xmlns="http://www.w3.org/2000/svg">
<path d="M23.2013 74.7821L14.7915 75.8604L14.6629 75.9217C14.4803 76.0231 14.3262 76.1686 14.2145 76.345C14.1028 76.5214 14.0371 76.723 14.0234 76.9313C14.0098 77.1396 14.0486 77.348 14.1363 77.5375C14.224 77.7269 14.3579 77.8914 14.5256 78.0157L22.6533 80.7126L18.8078 88.3641L18.7932 88.5052C18.786 88.7141 18.8313 88.9214 18.9251 89.1081C19.0188 89.2949 19.1579 89.4551 19.3296 89.5742C19.5014 89.6932 19.7002 89.7672 19.908 89.7895C20.1158 89.8117 20.3258 89.7814 20.5188 89.7013L27.1256 84.2657L32.0655 91.0213L32.2024 91.1106C32.3787 91.2084 32.5762 91.262 32.7777 91.2669C32.9793 91.2718 33.1791 91.2277 33.3599 91.1386C33.5408 91.0494 33.6973 90.9177 33.8162 90.7549C33.9351 90.592 34.0127 90.4027 34.0425 90.2033L33.2771 81.7202L41.2803 81.1103L41.4089 81.049C41.5914 80.9476 41.7456 80.802 41.8573 80.6257C41.969 80.4493 42.0347 80.2477 42.0483 80.0394C42.062 79.8311 42.0232 79.6226 41.9354 79.4332C41.8477 79.2438 41.7138 79.0793 41.5461 78.955L33.4185 76.258L37.264 68.6066L37.2785 68.4655C37.2857 68.2566 37.2404 68.0493 37.1467 67.8626C37.053 67.6758 36.9139 67.5156 36.7421 67.3965C36.5704 67.2775 36.3715 67.2035 36.1637 67.1812C35.9559 67.159 35.7459 67.1893 35.5529 67.2694L29.3528 72.2366L24.0062 65.9493C23.8331 65.8212 23.6298 65.7401 23.4161 65.7138C23.2023 65.6875 22.9854 65.717 22.7864 65.7993C22.5874 65.8817 22.4131 66.0141 22.2805 66.1837C22.1478 66.3534 22.0612 66.5544 22.0293 66.7674L23.2013 74.7821Z" fill="black"/>
<path d="M112.407 78.9235L104.811 75.1564L104.67 75.1361C104.462 75.1193 104.253 75.1548 104.062 75.2396C103.871 75.3244 103.705 75.4557 103.578 75.6215C103.451 75.7873 103.368 75.9823 103.336 76.1886C103.304 76.3948 103.324 76.6059 103.394 76.8024L108.662 83.5544L101.218 87.7883L101.128 87.8976C101.006 88.0674 100.929 88.265 100.903 88.4724C100.877 88.6798 100.904 88.8903 100.981 89.0846C101.058 89.2789 101.182 89.4508 101.343 89.5845C101.504 89.7182 101.695 89.8095 101.9 89.85L110.412 88.9913L110.776 97.3525L110.84 97.5027C110.933 97.6819 111.067 97.836 111.232 97.9519C111.397 98.0677 111.588 98.1419 111.788 98.168C111.988 98.1941 112.191 98.1714 112.38 98.1018C112.57 98.0322 112.739 97.9178 112.875 97.7683L116.943 90.2851L123.94 94.2164L124.082 94.2367C124.29 94.2536 124.499 94.218 124.689 94.1332C124.88 94.0484 125.047 93.9171 125.174 93.7513C125.3 93.5855 125.384 93.3906 125.416 93.1843C125.448 92.978 125.428 92.7669 125.357 92.5705L120.09 85.8185L127.534 81.5846L127.624 81.4752C127.746 81.3055 127.823 81.1078 127.849 80.9004C127.874 80.6931 127.847 80.4826 127.77 80.2883C127.694 80.0939 127.569 79.9221 127.409 79.7883C127.248 79.6546 127.056 79.5633 126.851 79.5229L118.937 80.2173L117.976 72.0203C117.903 71.8177 117.778 71.6374 117.615 71.497C117.452 71.3566 117.255 71.2608 117.044 71.2189C116.833 71.1771 116.614 71.1906 116.41 71.2582C116.205 71.3257 116.022 71.4451 115.877 71.6045L112.407 78.9235Z" fill="black"/>
<path d="M5.2038 72.3946C5.3824 72.3543 5.561 72.314 5.74501 72.2726C5.80441 72.6118 5.86922 72.9498 5.92984 73.2944C8.13611 85.0753 12.2176 93.5446 22.022 100.912C24.4584 102.884 26.5583 103.903 29.1942 105.659C33.0627 108.187 36.9304 110.461 41.0826 112.482C43.5692 113.724 45.9678 115.106 48.373 116.491C51.0108 118.001 53.675 119.476 56.3888 120.844C59.3233 122.332 61.9072 124.132 64.5189 126.131C64.9953 126.479 65.473 126.832 65.9639 127.193C69.9345 130.654 72.024 133.692 73.175 138.824C73.2617 139.208 73.3495 139.598 73.4385 139.993C74.0263 142.727 74.252 145.116 73.9722 147.886C73.1545 146.933 72.4381 146.025 71.8216 144.93C66.9306 136.427 55.1698 131.179 46.5904 127.329C44.8513 126.527 43.1164 125.718 41.3827 124.914C39.8582 124.206 38.3414 123.507 36.8097 122.817C23.8482 116.935 11.1079 108.78 5.75389 95.0187C3.35966 87.7273 3.31516 79.8096 5.2038 72.3946Z" fill="#FF0000"/>
<path d="M72.727 1.42935C79.8245 2.20564 86.9165 2.51616 94.0529 2.53279C95.2757 2.53834 96.4984 2.56052 97.7212 2.57715C102.251 2.61042 106.342 2.26663 110.654 0.736228C110.06 4.19628 108.342 5.7655 105.652 7.94466C99.0995 12.1477 90.4013 11.4158 82.9481 11.3382C81.2085 11.3215 79.4633 11.316 77.7236 11.3049C72.7771 11.2827 67.8305 11.2495 62.8839 11.2106C59.8493 11.1829 56.8091 11.1718 53.7689 11.1607C52.6184 11.1552 51.4679 11.1441 50.3174 11.133C48.7056 11.1164 47.0938 11.1053 45.482 11.1053C45.0151 11.0942 44.5482 11.0887 44.0647 11.0776C35.4221 11.0942 29.6085 15.7187 23.6726 21.4965C23.3947 21.7849 23.1223 22.0677 22.8389 22.3615C26.1069 13.6338 32.204 6.34217 40.7744 2.42189C51.0955 -1.47066 62.0558 0.209457 72.727 1.42935Z" fill="#FF0000"/>
<path d="M52.4501 29.7963C52.5197 29.5027 52.5976 29.211 52.6727 28.9187C52.937 27.8327 52.9919 26.8101 52.4753 25.6012C54.1444 26.1314 54.8222 26.7202 55.7466 27.6112C57.5323 29.7507 56.4445 32.3268 55.8704 34.7065C55.5887 35.894 55.3016 37.0804 55.0117 38.2661C53.7976 43.1762 53.6608 45.3364 57.9239 48.8507C58.0505 48.9498 58.1747 49.047 58.3037 49.1481C54.1902 47.3852 50.9379 45.1024 49.479 42.6018C47.5838 38.5025 51.5157 33.814 52.4501 29.7963Z" fill="black"/>
<path d="M63.3099 29.3168C64.0802 27.6961 64.6211 26.0247 65.0199 24.3096C65.3599 22.8769 65.6558 21.5435 65.0451 20.1145C66.7143 20.6448 67.392 21.2335 68.3165 22.1246C70.0249 24.1714 69.1888 26.1822 68.7426 27.9666C68.1646 30.2956 67.6079 32.6309 67.058 34.9668C66.1671 38.7116 67.5939 40.9735 70.4938 43.3641C70.6204 43.4632 70.7445 43.5604 70.8736 43.6614C66.7601 41.8985 63.5078 39.6157 62.0489 37.1151C60.6995 34.1965 62.1258 31.7476 63.3099 29.3168Z" fill="black"/>
<path d="M81.3191 34.8048C80.1521 32.3495 78.424 28.3165 79.5838 25.6025C77.9146 26.1328 77.2369 26.7215 76.3124 27.6126C74.604 29.6594 75.4401 31.6702 75.8863 33.4546C77.2386 38.9034 79.2208 44.6597 74.1351 48.8521C74.0085 48.9512 73.8844 49.0484 73.7553 49.1494C77.8688 47.3865 81.1211 45.1037 82.58 42.6032C83.9294 39.6845 82.5032 37.2356 81.3191 34.8048Z" fill="black"/>
<path d="M86.7995 96.0087L48.8323 95.3821L42.4053 94.3376C42.4053 99.2177 47.0935 102.641 51.2841 103.189H83.8399C88.7351 103.189 91.8519 99.8208 92.7187 94.3376L86.7995 96.0087Z" fill="black"/>
<path d="M90.2445 57.3129L87.219 57.5754V54.6089C87.219 53.8222 86.9085 53.0676 86.3558 52.5113C85.8031 51.955 85.0794 51.0124 84.2978 51.0124H48.9304C48.1487 51.0124 47.373 51.955 46.8203 52.5113C46.2676 53.0676 45.9571 53.8222 45.9571 54.6089L45.2007 81.6672C45.2007 84.8142 47.1991 87.4725 49.41 89.6978C51.6209 91.9231 54.6195 93.1732 57.7462 93.1732H75.4299C80.9059 93.1732 86.4493 90.1404 87.7667 85.0351L90.1663 84.2738C92.5113 84.2738 95.159 83.3361 96.8172 81.6672C98.4754 79.9982 99.0081 77.7346 99.0081 75.3743V66.4749C99.0081 64.1146 98.0766 61.851 96.4184 60.182C94.7603 58.513 92.5895 57.3129 90.2445 57.3129ZM93.1136 75.3743C93.1136 76.1611 92.8031 76.9156 92.2503 77.4719C91.6976 78.0283 90.948 78.3408 90.1663 78.3408L88.3666 77.4719L87.219 63.5084L89.6185 63.9021C90.4002 63.9021 91.6976 63.8209 92.2503 64.3772C92.8031 64.9336 92.7484 65.6881 92.7484 66.4749L93.1136 75.3743Z" fill="black"/>
<path d="M26.2426 33.9083L18.6088 30.2188L18.4676 30.1999C18.2593 30.1852 18.0507 30.2229 17.8608 30.3096C17.6709 30.3964 17.5058 30.5293 17.3806 30.6964C17.2554 30.8635 17.1741 31.0593 17.1441 31.2659C17.1141 31.4725 17.1365 31.6833 17.209 31.8791L22.5448 38.5771L15.1446 42.8865L15.0554 42.9968C14.9353 43.1678 14.86 43.3662 14.8366 43.5739C14.8131 43.7815 14.8421 43.9917 14.9209 44.1852C14.9998 44.3787 15.126 44.5494 15.2879 44.6814C15.4498 44.8135 15.6423 44.9029 15.8477 44.9412L24.3508 43.9959L24.7995 52.353L24.8654 52.5025C24.9597 52.6807 25.0958 52.8335 25.262 52.9476C25.4282 53.0618 25.6196 53.134 25.8198 53.1581C26.02 53.1821 26.223 53.1574 26.4115 53.0858C26.6001 53.0143 26.7685 52.8982 26.9023 52.7474L30.8941 45.2231L37.9314 49.0829L38.0726 49.1018C38.2809 49.1165 38.4895 49.0788 38.6794 48.9921C38.8693 48.9053 39.0344 48.7724 39.1596 48.6053C39.2848 48.4382 39.3662 48.2424 39.3961 48.0358C39.4261 47.8292 39.4038 47.6184 39.3312 47.4226L33.9955 40.7246L41.3956 36.4151L41.4848 36.3049C41.6049 36.1339 41.6802 35.9355 41.7037 35.7278C41.7271 35.5202 41.6981 35.31 41.6193 35.1165C41.5404 34.923 41.4142 34.7523 41.2523 34.6203C41.0904 34.4882 40.8979 34.3988 40.6925 34.3605L32.786 35.1355L31.7407 26.9487C31.6657 26.7469 31.5397 26.5679 31.375 26.4291C31.2103 26.2904 31.0125 26.1966 30.8008 26.1569C30.5892 26.1172 30.3708 26.1329 30.1671 26.2026C29.9633 26.2722 29.781 26.3934 29.6379 26.5543L26.2426 33.9083Z" fill="black"/>
<path d="M104.294 30.2614L95.8325 29.7263L95.6946 29.7621C95.4962 29.8271 95.3172 29.9407 95.1741 30.0927C95.031 30.2448 94.9283 30.4302 94.8754 30.6322C94.8225 30.8342 94.8211 31.0462 94.8713 31.2488C94.9216 31.4514 95.0218 31.6382 95.1629 31.7921L102.632 35.9807L97.4061 42.7646L97.3651 42.9004C97.3184 43.104 97.3236 43.3162 97.3802 43.5173C97.4369 43.7185 97.5431 43.9022 97.6891 44.0516C97.8352 44.201 98.0164 44.3114 98.2162 44.3726C98.416 44.4338 98.628 44.4439 98.8327 44.4019L106.35 40.3169L109.92 47.8864L110.037 48C110.192 48.1295 110.376 48.2195 110.573 48.2625C110.77 48.3055 110.974 48.3001 111.169 48.2469C111.363 48.1936 111.542 48.094 111.689 47.9566C111.837 47.8192 111.949 47.6481 112.016 47.4579L112.872 38.9835L120.846 39.9015L120.984 39.8657C121.182 39.8008 121.361 39.6871 121.505 39.5351C121.648 39.3831 121.75 39.1976 121.803 38.9956C121.856 38.7937 121.857 38.5817 121.807 38.379C121.757 38.1764 121.657 37.9896 121.516 37.8357L114.047 33.6472L119.272 26.8633L119.314 26.7275C119.36 26.5238 119.355 26.3116 119.298 26.1105C119.242 25.9094 119.136 25.7256 118.989 25.5762C118.843 25.4268 118.662 25.3164 118.462 25.2552C118.263 25.194 118.051 25.184 117.846 25.226L110.817 28.928L106.759 21.7414C106.613 21.5828 106.429 21.4646 106.224 21.3983C106.019 21.3319 105.8 21.3198 105.589 21.3629C105.378 21.406 105.182 21.503 105.02 21.6444C104.857 21.7858 104.734 21.9669 104.663 22.1699L104.294 30.2614Z" fill="black"/>
<path d="M148.208 42V39.0469L152.028 38.3906V11.3672H144.293L143.614 16.1016H140.145V7.875H168.504V16.1016H165.083L164.379 11.3672H156.645V38.3906L160.465 39.0469V42H148.208ZM171.997 42V39.0469L175.817 38.3906V9.07031L171.997 8.41406V5.4375H180.434V20.0156C181.309 18.7969 182.379 17.8516 183.645 17.1797C184.911 16.5078 186.317 16.1719 187.864 16.1719C190.583 16.1719 192.692 16.9844 194.192 18.6094C195.692 20.2344 196.442 22.7344 196.442 26.1094V38.3906L200.262 39.0469V42H188.004V39.0469L191.825 38.3906V26.0625C191.825 23.9688 191.372 22.4219 190.465 21.4219C189.575 20.4219 188.239 19.9219 186.458 19.9219C185.192 19.9219 184.036 20.2266 182.989 20.8359C181.958 21.4297 181.106 22.2422 180.434 23.2734V38.3906L184.254 39.0469V42H171.997ZM214.606 42.4922C212.262 42.4922 210.223 41.9609 208.489 40.8984C206.754 39.8203 205.411 38.3281 204.458 36.4219C203.52 34.5156 203.051 32.3125 203.051 29.8125V28.7812C203.051 26.375 203.543 24.2266 204.528 22.3359C205.528 20.4297 206.848 18.9297 208.489 17.8359C210.145 16.7266 211.95 16.1719 213.903 16.1719C216.184 16.1719 218.09 16.6406 219.622 17.5781C221.168 18.5156 222.333 19.8359 223.114 21.5391C223.895 23.2266 224.286 25.2188 224.286 27.5156V30.3984H207.833L207.762 30.5156C207.793 32.1406 208.075 33.5859 208.606 34.8516C209.153 36.1016 209.934 37.0859 210.95 37.8047C211.965 38.5234 213.184 38.8828 214.606 38.8828C216.168 38.8828 217.536 38.6641 218.708 38.2266C219.895 37.7734 220.918 37.1562 221.778 36.375L223.583 39.375C222.676 40.25 221.473 40.9922 219.973 41.6016C218.489 42.1953 216.7 42.4922 214.606 42.4922ZM207.973 26.7891H219.668V26.1797C219.668 24.9609 219.45 23.875 219.012 22.9219C218.59 21.9531 217.95 21.1953 217.09 20.6484C216.247 20.0859 215.184 19.8047 213.903 19.8047C212.872 19.8047 211.934 20.1094 211.09 20.7188C210.247 21.3125 209.551 22.125 209.004 23.1562C208.458 24.1875 208.098 25.3594 207.926 26.6719L207.973 26.7891ZM255.434 42.4922C252.012 42.4922 249.153 41.7422 246.856 40.2422C244.575 38.7422 242.856 36.6875 241.7 34.0781C240.559 31.4688 239.989 28.5078 239.989 25.1953V24.7031C239.989 21.3594 240.59 18.3906 241.793 15.7969C242.997 13.1875 244.723 11.1328 246.973 9.63281C249.223 8.13281 251.911 7.38281 255.036 7.38281C257.239 7.38281 259.254 7.72656 261.083 8.41406C262.911 9.10156 264.426 9.97656 265.629 11.0391V18.3984H261.95L261.458 13.0078C260.958 12.6172 260.379 12.2891 259.723 12.0234C259.083 11.7578 258.364 11.5547 257.567 11.4141C256.786 11.2734 255.934 11.2031 255.012 11.2031C252.778 11.2031 250.887 11.7813 249.34 12.9375C247.793 14.0781 246.622 15.6562 245.825 17.6719C245.028 19.6875 244.629 22.0156 244.629 24.6562V25.1953C244.629 28.0547 245.051 30.5 245.895 32.5312C246.754 34.5469 247.997 36.0859 249.622 37.1484C251.262 38.2109 253.254 38.7422 255.598 38.7422C256.692 38.7422 257.762 38.6094 258.809 38.3438C259.856 38.0781 260.723 37.7344 261.411 37.3125L261.926 32.5547H265.536V39.9609C264.254 40.7578 262.723 41.3828 260.942 41.8359C259.161 42.2734 257.325 42.4922 255.434 42.4922ZM281.543 42.4922C279.2 42.4922 277.176 41.9453 275.473 40.8516C273.786 39.7422 272.481 38.2188 271.559 36.2812C270.637 34.3281 270.176 32.1016 270.176 29.6016V29.0859C270.176 26.5859 270.637 24.3672 271.559 22.4297C272.481 20.4766 273.786 18.9453 275.473 17.8359C277.176 16.7266 279.184 16.1719 281.497 16.1719C283.84 16.1719 285.856 16.7266 287.543 17.8359C289.247 18.9453 290.559 20.4688 291.481 22.4062C292.403 24.3438 292.864 26.5703 292.864 29.0859V29.6016C292.864 32.1172 292.403 34.3516 291.481 36.3047C290.559 38.2422 289.254 39.7578 287.567 40.8516C285.879 41.9453 283.872 42.4922 281.543 42.4922ZM281.543 38.8828C283.012 38.8828 284.239 38.4844 285.223 37.6875C286.223 36.875 286.973 35.7734 287.473 34.3828C287.989 32.9766 288.247 31.3828 288.247 29.6016V29.0859C288.247 27.3047 287.989 25.7188 287.473 24.3281C286.973 22.9219 286.223 21.8203 285.223 21.0234C284.223 20.2109 282.981 19.8047 281.497 19.8047C280.028 19.8047 278.793 20.2109 277.793 21.0234C276.793 21.8203 276.043 22.9219 275.543 24.3281C275.043 25.7188 274.793 27.3047 274.793 29.0859V29.6016C274.793 31.3828 275.043 32.9766 275.543 34.3828C276.043 35.7734 276.793 36.875 277.793 37.6875C278.809 38.4844 280.059 38.8828 281.543 38.8828ZM296.333 42V39.0469L300.153 38.3906V20.0625H296.192V16.6406H300.153V13.4297C300.153 10.7266 300.856 8.64063 302.262 7.17188C303.684 5.6875 305.661 4.94531 308.192 4.94531C308.723 4.94531 309.293 4.99219 309.903 5.08594C310.528 5.16406 311.168 5.28125 311.825 5.4375L311.262 8.95312C310.981 8.89062 310.598 8.83594 310.114 8.78906C309.645 8.74219 309.2 8.71875 308.778 8.71875C307.418 8.71875 306.411 9.125 305.754 9.9375C305.098 10.7344 304.77 11.8984 304.77 13.4297V16.6406H310.301V20.0625H304.77V38.3906L309.129 39.0469V42H296.333ZM313.348 42V39.0469L317.168 38.3906V20.0625H313.208V16.6406H317.168V13.4297C317.168 10.7266 317.872 8.64063 319.278 7.17188C320.7 5.6875 322.676 4.94531 325.208 4.94531C325.739 4.94531 326.309 4.99219 326.918 5.08594C327.543 5.16406 328.184 5.28125 328.84 5.4375L328.278 8.95312C327.997 8.89062 327.614 8.83594 327.129 8.78906C326.661 8.74219 326.215 8.71875 325.793 8.71875C324.434 8.71875 323.426 9.125 322.77 9.9375C322.114 10.7344 321.786 11.8984 321.786 13.4297V16.6406H327.317V20.0625H321.786V38.3906L326.145 39.0469V42H313.348ZM341.778 42.4922C339.434 42.4922 337.395 41.9609 335.661 40.8984C333.926 39.8203 332.583 38.3281 331.629 36.4219C330.692 34.5156 330.223 32.3125 330.223 29.8125V28.7812C330.223 26.375 330.715 24.2266 331.7 22.3359C332.7 20.4297 334.02 18.9297 335.661 17.8359C337.317 16.7266 339.122 16.1719 341.075 16.1719C343.356 16.1719 345.262 16.6406 346.793 17.5781C348.34 18.5156 349.504 19.8359 350.286 21.5391C351.067 23.2266 351.458 25.2188 351.458 27.5156V30.3984H335.004L334.934 30.5156C334.965 32.1406 335.247 33.5859 335.778 34.8516C336.325 36.1016 337.106 37.0859 338.122 37.8047C339.137 38.5234 340.356 38.8828 341.778 38.8828C343.34 38.8828 344.708 38.6641 345.879 38.2266C347.067 37.7734 348.09 37.1562 348.95 36.375L350.754 39.375C349.848 40.25 348.645 40.9922 347.145 41.6016C345.661 42.1953 343.872 42.4922 341.778 42.4922ZM335.145 26.7891H346.84V26.1797C346.84 24.9609 346.622 23.875 346.184 22.9219C345.762 21.9531 345.122 21.1953 344.262 20.6484C343.418 20.0859 342.356 19.8047 341.075 19.8047C340.043 19.8047 339.106 20.1094 338.262 20.7188C337.418 21.3125 336.723 22.125 336.176 23.1562C335.629 24.1875 335.27 25.3594 335.098 26.6719L335.145 26.7891ZM367.325 42.4922C364.981 42.4922 362.942 41.9609 361.208 40.8984C359.473 39.8203 358.129 38.3281 357.176 36.4219C356.239 34.5156 355.77 32.3125 355.77 29.8125V28.7812C355.77 26.375 356.262 24.2266 357.247 22.3359C358.247 20.4297 359.567 18.9297 361.208 17.8359C362.864 16.7266 364.668 16.1719 366.622 16.1719C368.903 16.1719 370.809 16.6406 372.34 17.5781C373.887 18.5156 375.051 19.8359 375.833 21.5391C376.614 23.2266 377.004 25.2188 377.004 27.5156V30.3984H360.551L360.481 30.5156C360.512 32.1406 360.793 33.5859 361.325 34.8516C361.872 36.1016 362.653 37.0859 363.668 37.8047C364.684 38.5234 365.903 38.8828 367.325 38.8828C368.887 38.8828 370.254 38.6641 371.426 38.2266C372.614 37.7734 373.637 37.1562 374.497 36.375L376.301 39.375C375.395 40.25 374.192 40.9922 372.692 41.6016C371.208 42.1953 369.418 42.4922 367.325 42.4922ZM360.692 26.7891H372.387V26.1797C372.387 24.9609 372.168 23.875 371.731 22.9219C371.309 21.9531 370.668 21.1953 369.809 20.6484C368.965 20.0859 367.903 19.8047 366.622 19.8047C365.59 19.8047 364.653 20.1094 363.809 20.7188C362.965 21.3125 362.27 22.125 361.723 23.1562C361.176 24.1875 360.817 25.3594 360.645 26.6719L360.692 26.7891ZM151.09 88.4922C148.747 88.4922 146.723 87.9453 145.02 86.8516C143.333 85.7422 142.028 84.2188 141.106 82.2812C140.184 80.3281 139.723 78.1016 139.723 75.6016V75.0859C139.723 72.5859 140.184 70.3672 141.106 68.4297C142.028 66.4766 143.333 64.9453 145.02 63.8359C146.723 62.7266 148.731 62.1719 151.043 62.1719C153.387 62.1719 155.403 62.7266 157.09 63.8359C158.793 64.9453 160.106 66.4688 161.028 68.4062C161.95 70.3438 162.411 72.5703 162.411 75.0859V75.6016C162.411 78.1172 161.95 80.3516 161.028 82.3047C160.106 84.2422 158.801 85.7578 157.114 86.8516C155.426 87.9453 153.418 88.4922 151.09 88.4922ZM151.09 84.8828C152.559 84.8828 153.786 84.4844 154.77 83.6875C155.77 82.875 156.52 81.7734 157.02 80.3828C157.536 78.9766 157.793 77.3828 157.793 75.6016V75.0859C157.793 73.3047 157.536 71.7188 157.02 70.3281C156.52 68.9219 155.77 67.8203 154.77 67.0234C153.77 66.2109 152.528 65.8047 151.043 65.8047C149.575 65.8047 148.34 66.2109 147.34 67.0234C146.34 67.8203 145.59 68.9219 145.09 70.3281C144.59 71.7188 144.34 73.3047 144.34 75.0859V75.6016C144.34 77.3828 144.59 78.9766 145.09 80.3828C145.59 81.7734 146.34 82.875 147.34 83.6875C148.356 84.4844 149.606 84.8828 151.09 84.8828ZM165.879 88V85.0469L169.7 84.3906V66.0625H165.739V62.6406H169.7V59.4297C169.7 56.7266 170.403 54.6406 171.809 53.1719C173.231 51.6875 175.208 50.9453 177.739 50.9453C178.27 50.9453 178.84 50.9922 179.45 51.0859C180.075 51.1641 180.715 51.2812 181.372 51.4375L180.809 54.9531C180.528 54.8906 180.145 54.8359 179.661 54.7891C179.192 54.7422 178.747 54.7188 178.325 54.7188C176.965 54.7188 175.958 55.125 175.301 55.9375C174.645 56.7344 174.317 57.8984 174.317 59.4297V62.6406H179.848V66.0625H174.317V84.3906L178.676 85.0469V88H165.879ZM139.793 134V131.047L143.614 130.391V103.508L139.793 102.852V99.875H152.051V102.852L148.231 103.508V115.297H164.543V103.508L160.723 102.852V99.875H164.543H169.161H172.981V102.852L169.161 103.508V130.391L172.981 131.047V134H160.723V131.047L164.543 130.391V118.93H148.231V130.391L152.051 131.047V134H139.793ZM184.817 134.492C182.176 134.492 180.168 133.852 178.793 132.57C177.418 131.273 176.731 129.453 176.731 127.109C176.731 124.703 177.715 122.773 179.684 121.32C181.653 119.852 184.387 119.117 187.887 119.117H192.411V116.633C192.411 115.102 191.942 113.914 191.004 113.07C190.083 112.227 188.778 111.805 187.09 111.805C186.028 111.805 185.106 111.938 184.325 112.203C183.543 112.453 182.833 112.805 182.192 113.258L181.7 116.797H178.137V110.984C179.278 110.062 180.606 109.367 182.122 108.898C183.637 108.414 185.317 108.172 187.161 108.172C190.239 108.172 192.653 108.906 194.403 110.375C196.153 111.844 197.028 113.945 197.028 116.68V128.891C197.028 129.219 197.028 129.539 197.028 129.852C197.043 130.164 197.067 130.477 197.098 130.789L199.559 131.047V134H192.926C192.786 133.312 192.676 132.695 192.598 132.148C192.52 131.602 192.465 131.055 192.434 130.508C191.543 131.648 190.426 132.602 189.083 133.367C187.754 134.117 186.333 134.492 184.817 134.492ZM185.497 130.625C187.028 130.625 188.426 130.258 189.692 129.523C190.958 128.789 191.864 127.906 192.411 126.875V122.281H187.723C185.598 122.281 184.004 122.789 182.942 123.805C181.879 124.82 181.348 125.953 181.348 127.203C181.348 128.312 181.692 129.164 182.379 129.758C183.067 130.336 184.106 130.625 185.497 130.625ZM211.348 134.492C208.708 134.492 206.7 133.852 205.325 132.57C203.95 131.273 203.262 129.453 203.262 127.109C203.262 124.703 204.247 122.773 206.215 121.32C208.184 119.852 210.918 119.117 214.418 119.117H218.942V116.633C218.942 115.102 218.473 113.914 217.536 113.07C216.614 112.227 215.309 111.805 213.622 111.805C212.559 111.805 211.637 111.938 210.856 112.203C210.075 112.453 209.364 112.805 208.723 113.258L208.231 116.797H204.668V110.984C205.809 110.062 207.137 109.367 208.653 108.898C210.168 108.414 211.848 108.172 213.692 108.172C216.77 108.172 219.184 108.906 220.934 110.375C222.684 111.844 223.559 113.945 223.559 116.68V128.891C223.559 129.219 223.559 129.539 223.559 129.852C223.575 130.164 223.598 130.477 223.629 130.789L226.09 131.047V134H219.458C219.317 133.312 219.208 132.695 219.129 132.148C219.051 131.602 218.997 131.055 218.965 130.508C218.075 131.648 216.958 132.602 215.614 133.367C214.286 134.117 212.864 134.492 211.348 134.492ZM212.028 130.625C213.559 130.625 214.958 130.258 216.223 129.523C217.489 128.789 218.395 127.906 218.942 126.875V122.281H214.254C212.129 122.281 210.536 122.789 209.473 123.805C208.411 124.82 207.879 125.953 207.879 127.203C207.879 128.312 208.223 129.164 208.911 129.758C209.598 130.336 210.637 130.625 212.028 130.625ZM229.629 134V131.047L233.45 130.391V112.273L229.629 111.617V108.641H237.575L237.973 111.875L238.02 112.32C238.739 111.023 239.622 110.008 240.668 109.273C241.731 108.539 242.942 108.172 244.301 108.172C244.786 108.172 245.278 108.219 245.778 108.312C246.293 108.391 246.661 108.469 246.879 108.547L246.27 112.836L243.059 112.648C241.84 112.57 240.817 112.852 239.989 113.492C239.161 114.117 238.52 114.961 238.067 116.023V130.391L241.887 131.047V134H229.629ZM248.989 134V131.047L252.809 130.391V101.07L248.989 100.414V97.4375H257.426V130.391L261.247 131.047V134H248.989ZM275.637 134.492C273.293 134.492 271.254 133.961 269.52 132.898C267.786 131.82 266.442 130.328 265.489 128.422C264.551 126.516 264.083 124.312 264.083 121.812V120.781C264.083 118.375 264.575 116.227 265.559 114.336C266.559 112.43 267.879 110.93 269.52 109.836C271.176 108.727 272.981 108.172 274.934 108.172C277.215 108.172 279.122 108.641 280.653 109.578C282.2 110.516 283.364 111.836 284.145 113.539C284.926 115.227 285.317 117.219 285.317 119.516V122.398H268.864L268.793 122.516C268.825 124.141 269.106 125.586 269.637 126.852C270.184 128.102 270.965 129.086 271.981 129.805C272.997 130.523 274.215 130.883 275.637 130.883C277.2 130.883 278.567 130.664 279.739 130.227C280.926 129.773 281.95 129.156 282.809 128.375L284.614 131.375C283.708 132.25 282.504 132.992 281.004 133.602C279.52 134.195 277.731 134.492 275.637 134.492ZM269.004 118.789H280.7V118.18C280.7 116.961 280.481 115.875 280.043 114.922C279.622 113.953 278.981 113.195 278.122 112.648C277.278 112.086 276.215 111.805 274.934 111.805C273.903 111.805 272.965 112.109 272.122 112.719C271.278 113.312 270.583 114.125 270.036 115.156C269.489 116.188 269.129 117.359 268.958 118.672L269.004 118.789ZM288.926 134V131.047L292.747 130.391V112.273L288.926 111.617V108.641H296.895L297.2 111.945C298.012 110.742 299.059 109.812 300.34 109.156C301.622 108.5 303.106 108.172 304.793 108.172C306.481 108.172 307.926 108.562 309.129 109.344C310.348 110.125 311.262 111.297 311.872 112.859C312.668 111.422 313.723 110.281 315.036 109.438C316.348 108.594 317.879 108.172 319.629 108.172C322.223 108.172 324.27 109.062 325.77 110.844C327.27 112.609 328.02 115.273 328.02 118.836V130.391L331.84 131.047V134H319.559V131.047L323.379 130.391V118.789C323.379 116.289 322.95 114.523 322.09 113.492C321.231 112.445 319.958 111.922 318.27 111.922C316.661 111.922 315.364 112.492 314.379 113.633C313.411 114.758 312.848 116.18 312.692 117.898V130.391L316.512 131.047V134H304.254V131.047L308.075 130.391V118.789C308.075 116.414 307.629 114.68 306.739 113.586C305.864 112.477 304.59 111.922 302.918 111.922C301.512 111.922 300.356 112.211 299.45 112.789C298.543 113.367 297.848 114.18 297.364 115.227V130.391L301.184 131.047V134H288.926Z" fill="black"/>
</svg>
