<svg width="16" height="16" viewBox="0 0 16 16" fill="none" xmlns="http://www.w3.org/2000/svg">
<g clip-path="url(#clip0_4183_4824)">
<rect width="16" height="16" fill="white"/>
<path d="M3.44881 8.14224L2.53315 8.25965L2.51914 8.26633C2.49927 8.27737 2.48248 8.29321 2.47032 8.31242C2.45816 8.33162 2.451 8.35357 2.44952 8.37625C2.44803 8.39894 2.45226 8.42163 2.46181 8.44226C2.47136 8.46288 2.48594 8.48079 2.5042 8.49432L3.38915 8.78797L2.97044 9.62107L2.96886 9.63643C2.96807 9.65917 2.97301 9.68174 2.98321 9.70208C2.99342 9.72241 3.00856 9.73986 3.02726 9.75282C3.04596 9.76578 3.06762 9.77384 3.09024 9.77626C3.11286 9.77868 3.13573 9.77538 3.15675 9.76667L3.87609 9.17483L4.41396 9.91039L4.42887 9.92011C4.44806 9.93076 4.46956 9.9366 4.49151 9.93713C4.51345 9.93766 4.5352 9.93286 4.5549 9.92315C4.57459 9.91344 4.59163 9.89911 4.60458 9.88138C4.61752 9.86364 4.62597 9.84304 4.62921 9.82132L4.54588 8.89767L5.41727 8.83127L5.43127 8.82459C5.45115 8.81355 5.46793 8.7977 5.4801 8.7785C5.49226 8.7593 5.49941 8.73735 5.5009 8.71467C5.50238 8.69198 5.49816 8.66929 5.48861 8.64866C5.47905 8.62804 5.46448 8.61013 5.44622 8.5966L4.56127 8.30295L4.97997 7.46985L4.98156 7.45449C4.98234 7.43175 4.97741 7.40918 4.9672 7.38884C4.957 7.36851 4.94185 7.35106 4.92315 7.3381C4.90445 7.32514 4.8828 7.31708 4.86018 7.31466C4.83755 7.31224 4.81469 7.31554 4.79367 7.32425L4.1186 7.86509L3.53646 7.18053C3.51761 7.16658 3.49547 7.15775 3.4722 7.15488C3.44893 7.15202 3.42531 7.15523 3.40364 7.16419C3.38198 7.17316 3.363 7.18758 3.34855 7.20605C3.33411 7.22452 3.32469 7.24641 3.3212 7.2696L3.44881 8.14224Z" fill="black"/>
<path d="M13.1617 8.59314L12.3346 8.18297L12.3193 8.18076C12.2966 8.17892 12.2739 8.1828 12.2531 8.19203C12.2323 8.20127 12.2142 8.21556 12.2004 8.23361C12.1866 8.25166 12.1775 8.27289 12.174 8.29535C12.1705 8.31781 12.1727 8.34079 12.1804 8.36218L12.7539 9.09735L11.9434 9.55834L11.9336 9.57024C11.9203 9.58873 11.9119 9.61025 11.9091 9.63283C11.9063 9.65541 11.9093 9.67833 11.9176 9.69948C11.926 9.72064 11.9395 9.73936 11.957 9.75392C11.9745 9.76848 11.9954 9.77842 12.0177 9.78282L12.9445 9.68933L12.9841 10.5997L12.9911 10.6161C13.0012 10.6356 13.0158 10.6523 13.0338 10.665C13.0518 10.6776 13.0725 10.6857 13.0943 10.6885C13.1161 10.6913 13.1382 10.6889 13.1588 10.6813C13.1794 10.6737 13.1979 10.6612 13.2126 10.645L13.6556 9.83019L14.4175 10.2582L14.4328 10.2605C14.4555 10.2623 14.4782 10.2584 14.499 10.2492C14.5198 10.2399 14.5379 10.2257 14.5517 10.2076C14.5655 10.1896 14.5746 10.1683 14.5781 10.1459C14.5816 10.1234 14.5794 10.1004 14.5717 10.079L13.9982 9.34387L14.8087 8.88288L14.8185 8.87097C14.8318 8.85249 14.8402 8.83097 14.843 8.80839C14.8458 8.78581 14.8429 8.76289 14.8345 8.74173C14.8261 8.72057 14.8126 8.70186 14.7951 8.6873C14.7776 8.67274 14.7567 8.6628 14.7344 8.65839L13.8727 8.734L13.768 7.84151C13.7601 7.81945 13.7465 7.79982 13.7288 7.78453C13.711 7.76924 13.6896 7.75881 13.6666 7.75425C13.6436 7.7497 13.6198 7.75117 13.5975 7.75853C13.5752 7.76588 13.5553 7.77887 13.5395 7.79624L13.1617 8.59314Z" fill="black"/>
<path d="M1.48924 7.88227C1.50869 7.87789 1.52813 7.87351 1.54817 7.86899C1.55464 7.90592 1.56169 7.94272 1.56829 7.98025C1.80851 9.26297 2.25291 10.1851 3.32042 10.9872C3.58571 11.202 3.81434 11.3129 4.10134 11.5041C4.52255 11.7794 4.94367 12.0269 5.39576 12.247C5.66651 12.3823 5.92766 12.5327 6.18954 12.6836C6.47675 12.848 6.76683 13.0086 7.06232 13.1575C7.38182 13.3195 7.66317 13.5155 7.94752 13.7332C7.9994 13.771 8.05141 13.8094 8.10486 13.8488C8.53718 14.2257 8.76469 14.5564 8.89002 15.1152C8.89945 15.157 8.90901 15.1995 8.91871 15.2425C8.98271 15.5401 9.00728 15.8002 8.97681 16.1018C8.88778 15.9981 8.80978 15.8992 8.74265 15.78C8.21012 14.8542 6.92959 14.2828 5.99545 13.8636C5.8061 13.7762 5.6172 13.6882 5.42844 13.6007C5.26244 13.5235 5.0973 13.4474 4.93052 13.3723C3.51926 12.7319 2.13209 11.844 1.54913 10.3456C1.28845 9.55172 1.2836 8.68963 1.48924 7.88227Z" fill="#DC0428"/>
<path d="M8.84105 0.155629C9.61384 0.240152 10.386 0.273962 11.163 0.275773C11.2962 0.276377 11.4293 0.278792 11.5624 0.280603C12.0556 0.284225 12.501 0.246793 12.9706 0.0801612C12.9059 0.456895 12.7189 0.627753 12.426 0.865023C11.7125 1.32266 10.7654 1.24296 9.95393 1.23451C9.76452 1.2327 9.5745 1.2321 9.38509 1.23089C8.8465 1.22847 8.30791 1.22485 7.76932 1.22063C7.43891 1.21761 7.10789 1.2164 6.77687 1.21519C6.6516 1.21459 6.52633 1.21338 6.40107 1.21217C6.22557 1.21036 6.05008 1.20915 5.87458 1.20915C5.82375 1.20795 5.77292 1.20734 5.72027 1.20614C4.77925 1.20795 4.14626 1.71147 3.49995 2.34056C3.4697 2.37196 3.44004 2.40275 3.40918 2.43475C3.76501 1.48446 4.42887 0.690542 5.36202 0.263698C6.48579 -0.160127 7.67916 0.0228059 8.84105 0.155629Z" fill="#DB0428"/>
<path d="M6.63341 3.2443C6.641 3.21234 6.64947 3.18058 6.65765 3.14875C6.68643 3.0305 6.6924 2.91916 6.63616 2.78754C6.81789 2.84527 6.89169 2.90938 6.99234 3.00639C7.18677 3.23934 7.06833 3.51983 7.00582 3.77893C6.97515 3.90823 6.94388 4.0374 6.91232 4.16651C6.78013 4.70112 6.76524 4.93633 7.22941 5.31897C7.24319 5.32976 7.25671 5.34034 7.27076 5.35135C6.82288 5.1594 6.46876 4.91085 6.30992 4.63858C6.10357 4.19225 6.53168 3.68176 6.63341 3.2443Z" fill="black"/>
<path d="M7.81578 3.19216C7.89965 3.0157 7.95855 2.83371 8.00197 2.64698C8.03899 2.49099 8.0712 2.34579 8.00472 2.19021C8.18646 2.24794 8.26025 2.31205 8.36091 2.40907C8.54692 2.63193 8.45588 2.85086 8.4073 3.04515C8.34437 3.29874 8.28375 3.553 8.22389 3.80734C8.12688 4.21508 8.28223 4.46136 8.59797 4.72164C8.61175 4.73244 8.62527 4.74302 8.63932 4.75402C8.19144 4.56207 7.83733 4.31352 7.67848 4.04126C7.53156 3.72347 7.68685 3.45683 7.81578 3.19216Z" fill="black"/>
<path d="M9.77675 3.78964C9.64969 3.5223 9.46154 3.08319 9.58781 2.78768C9.40607 2.84542 9.33228 2.90952 9.23162 3.00654C9.04561 3.2294 9.13665 3.44833 9.18523 3.64262C9.33247 4.2359 9.54829 4.86264 8.99456 5.31912C8.98077 5.32991 8.96725 5.34049 8.95321 5.35149C9.40109 5.15955 9.7552 4.91099 9.91405 4.63873C10.061 4.32094 9.90568 4.05431 9.77675 3.78964Z" fill="black"/>
<path d="M10.3735 10.4534L6.23958 10.3852L5.53979 10.2715C5.53979 10.8028 6.05025 11.1755 6.50653 11.2352H10.0512C10.5842 11.2352 10.9236 10.8685 11.018 10.2715L10.3735 10.4534Z" fill="black"/>
<path d="M10.7484 6.24039L10.419 6.26897V5.94598C10.419 5.86031 10.3852 5.77816 10.325 5.71759C10.2648 5.65701 10.186 5.55438 10.1009 5.55438H6.25009C6.16498 5.55438 6.08052 5.65701 6.02034 5.71759C5.96016 5.77816 5.92635 5.86031 5.92635 5.94598L5.84399 8.89211C5.84399 9.23476 6.06159 9.52419 6.30231 9.76648C6.54303 10.0088 6.86953 10.1449 7.20996 10.1449H9.13538C9.73162 10.1449 10.3352 9.81468 10.4786 9.25881L10.7399 9.17591C10.9952 9.17591 11.2835 9.07382 11.4641 8.89211C11.6446 8.71039 11.7026 8.46392 11.7026 8.20693V7.23795C11.7026 6.98096 11.6012 6.7345 11.4206 6.55278C11.2401 6.37106 11.0037 6.24039 10.7484 6.24039ZM11.0608 8.20693C11.0608 8.2926 11.027 8.37475 10.9668 8.43532C10.9066 8.4959 10.825 8.52993 10.7399 8.52993L10.5439 8.43532L10.419 6.91496L10.6803 6.95783C10.7654 6.95783 10.9066 6.94899 10.9668 7.00956C11.027 7.07013 11.021 7.15229 11.021 7.23795L11.0608 8.20693Z" fill="black"/>
<path d="M3.7803 3.69188L2.94912 3.29016L2.93374 3.28811C2.91107 3.2865 2.88835 3.29061 2.86768 3.30005C2.847 3.3095 2.82902 3.32398 2.81539 3.34217C2.80175 3.36036 2.7929 3.38167 2.78964 3.40417C2.78638 3.42667 2.78881 3.44962 2.79671 3.47093L3.37767 4.20022L2.57194 4.66944L2.56222 4.68145C2.54914 4.70007 2.54095 4.72167 2.53839 4.74428C2.53583 4.76688 2.53899 4.78977 2.54758 4.81084C2.55617 4.83191 2.5699 4.85049 2.58753 4.86487C2.60516 4.87925 2.62612 4.88898 2.64849 4.89316L3.57431 4.79023L3.62316 5.70015L3.63034 5.71644C3.64061 5.73584 3.65543 5.75247 3.67352 5.7649C3.69162 5.77733 3.71246 5.7852 3.73426 5.78782C3.75605 5.79044 3.77816 5.78774 3.79869 5.77995C3.81922 5.77216 3.83755 5.75952 3.85212 5.7431L4.28675 4.92384L5.05298 5.34411L5.06836 5.34616C5.09103 5.34777 5.11375 5.34366 5.13442 5.33422C5.1551 5.32477 5.17308 5.31029 5.18671 5.2921C5.20035 5.27391 5.2092 5.2526 5.21246 5.2301C5.21572 5.2076 5.21329 5.18465 5.20539 5.16333L4.62444 4.43405L5.43016 3.96483L5.43988 3.95282C5.45296 3.9342 5.46115 3.9126 5.46371 3.88999C5.46627 3.86738 5.46311 3.8445 5.45452 3.82343C5.44594 3.80236 5.4322 3.78378 5.41457 3.7694C5.39694 3.75502 5.37598 3.74529 5.35361 3.74111L4.49274 3.82549L4.37894 2.93411C4.37077 2.91214 4.35705 2.89265 4.33911 2.87754C4.32118 2.86243 4.29965 2.85222 4.2766 2.8479C4.25355 2.84358 4.22978 2.84529 4.20759 2.85287C4.18541 2.86046 4.16556 2.87365 4.14998 2.89117L3.7803 3.69188Z" fill="black"/>
<path d="M12.2783 3.29491L11.357 3.23664L11.342 3.24054C11.3204 3.24761 11.3009 3.25999 11.2853 3.27654C11.2697 3.29309 11.2585 3.31328 11.2528 3.33527C11.247 3.35727 11.2469 3.38035 11.2523 3.40241C11.2578 3.42448 11.2687 3.44482 11.2841 3.46157L12.0973 3.91762L11.5283 4.65626L11.5238 4.67105C11.5188 4.69322 11.5193 4.71632 11.5255 4.73822C11.5317 4.76012 11.5432 4.78013 11.5591 4.7964C11.575 4.81267 11.5948 4.82468 11.6165 4.83135C11.6383 4.83801 11.6614 4.8391 11.6836 4.83453L12.5021 4.38976L12.8908 5.21394L12.9036 5.2263C12.9205 5.2404 12.9405 5.2502 12.9619 5.25489C12.9834 5.25957 13.0056 5.25898 13.0268 5.25318C13.048 5.24738 13.0674 5.23653 13.0835 5.22157C13.0996 5.20661 13.1118 5.18798 13.1191 5.16728L13.2123 4.24457L14.0805 4.34453L14.0955 4.34063C14.1171 4.33356 14.1366 4.32118 14.1522 4.30463C14.1678 4.28808 14.1789 4.26789 14.1847 4.2459C14.1905 4.22391 14.1906 4.20082 14.1851 4.17876C14.1797 4.15669 14.1687 4.13636 14.1534 4.1196L13.3401 3.66355L13.9091 2.92491L13.9136 2.91012C13.9187 2.88795 13.9181 2.86485 13.912 2.84295C13.9058 2.82105 13.8942 2.80105 13.8783 2.78477C13.8624 2.7685 13.8427 2.75649 13.8209 2.74982C13.7992 2.74316 13.7761 2.74207 13.7538 2.74664L12.9885 3.14972L12.5466 2.36723C12.5308 2.34997 12.5107 2.3371 12.4884 2.32988C12.4661 2.32266 12.4423 2.32133 12.4193 2.32603C12.3963 2.33072 12.375 2.34128 12.3573 2.35668C12.3396 2.37208 12.3262 2.39179 12.3184 2.41389L12.2783 3.29491Z" fill="black"/>
</g>
<defs>
<clipPath id="clip0_4183_4824">
<rect width="16" height="16" fill="white"/>
</clipPath>
</defs>
</svg>
