<svg width="46" height="42" viewBox="0 0 46 42" fill="none" xmlns="http://www.w3.org/2000/svg">
<g filter="url(#filter0_d_4209_5250)">
<path fill-rule="evenodd" clip-rule="evenodd" d="M13.1903 0C12.6839 0.000165336 12.1854 0.125369 11.739 0.364495C11.2927 0.603621 10.9123 0.949269 10.6316 1.37075L4.32439 10.8289C3.93953 11.4088 3.89384 12.1504 4.20489 12.7725C7.65844 19.6744 12.4549 25.8175 18.313 30.8418L21.3884 33.4796C21.7802 33.8154 22.2792 34 22.7952 34C23.3112 34 23.8102 33.8154 24.202 33.4796L27.2774 30.8436C33.1364 25.8189 37.9334 19.6752 41.3873 12.7725C41.6983 12.1504 41.6509 11.4088 41.266 10.8289L34.9553 1.37075C34.6746 0.949842 34.2944 0.604692 33.8483 0.365893C33.4023 0.127093 32.9043 0.00201889 32.3983 0.00175724L13.1903 0ZM12.8248 2.83112C12.865 2.77105 12.9193 2.72182 12.9831 2.68779C13.0469 2.65376 13.118 2.63599 13.1903 2.63605H17.3026L13.9372 10.7129C13.8624 10.8985 13.8036 11.0902 13.7615 11.2858C12.5238 11.1935 11.2876 11.0822 10.0534 10.9519L7.58431 10.6936L12.8248 2.83112ZM7.47008 13.3314C10.6251 19.1157 14.7874 24.2903 19.7611 28.6117L14.2693 13.9658C12.771 13.8628 11.2747 13.7327 9.78102 13.5757L7.47008 13.3314ZM17.1461 14.1292L22.7943 29.1969L28.4443 14.1292C24.6796 14.2999 20.9091 14.2999 17.1444 14.1292M31.3211 13.9658L25.8293 28.6117C30.803 24.2903 34.9653 19.1157 38.1203 13.3314L35.8094 13.5757C34.3156 13.7315 32.8195 13.8615 31.3211 13.9658ZM38.0043 10.6936L35.5335 10.9537C34.2992 11.0839 33.0631 11.1953 31.8254 11.2876C31.7839 11.0914 31.7257 10.8992 31.6515 10.7129L28.2861 2.63605H32.3983C32.4706 2.63599 32.5418 2.65376 32.6055 2.68779C32.6693 2.72182 32.7237 2.77105 32.7639 2.83112L38.0043 10.6936ZM29.1068 11.458C24.8997 11.676 20.6913 11.676 16.4819 11.458L20.1583 2.63605H25.4304L29.1068 11.458Z" fill="#F69E9E"/>
</g>
<defs>
<filter id="filter0_d_4209_5250" x="0" y="0" width="45.5914" height="42" filterUnits="userSpaceOnUse" color-interpolation-filters="sRGB">
<feFlood flood-opacity="0" result="BackgroundImageFix"/>
<feColorMatrix in="SourceAlpha" type="matrix" values="0 0 0 0 0 0 0 0 0 0 0 0 0 0 0 0 0 0 127 0" result="hardAlpha"/>
<feOffset dy="4"/>
<feGaussianBlur stdDeviation="2"/>
<feComposite in2="hardAlpha" operator="out"/>
<feColorMatrix type="matrix" values="0 0 0 0 0 0 0 0 0 0 0 0 0 0 0 0 0 0 0.25 0"/>
<feBlend mode="normal" in2="BackgroundImageFix" result="effect1_dropShadow_4209_5250"/>
<feBlend mode="normal" in="SourceGraphic" in2="effect1_dropShadow_4209_5250" result="shape"/>
</filter>
</defs>
</svg>
