<svg width="46" height="42" viewBox="0 0 46 42" fill="none" xmlns="http://www.w3.org/2000/svg">
<g filter="url(#filter0_d_4219_5297)">
<path d="M21.8556 0.168274C23.7035 0.167793 25.5006 0.77245 26.9723 1.88981C28.444 3.00716 29.5093 4.57574 30.0053 6.35572L30.1031 6.74103L33.6178 5.86328C33.8747 5.79934 34.1422 5.79039 34.4028 5.83701C34.6634 5.88364 34.9112 5.98479 35.13 6.13385C35.3488 6.2829 35.5336 6.47649 35.6724 6.70194C35.8112 6.9274 35.9008 7.17962 35.9353 7.4421L35.9522 7.68644V11.0884C37.0123 12.1039 37.8808 13.3022 38.5159 14.6257L38.7753 15.2046H39.7113C40.1716 15.2047 40.616 15.3737 40.96 15.6796C41.304 15.9855 41.5238 16.407 41.5777 16.8642L41.5908 17.0841V22.7228C41.5909 23.0321 41.5146 23.3367 41.3686 23.6095C41.2227 23.8823 41.0118 24.1148 40.7544 24.2865L40.5514 24.4031L38.3561 25.5026C37.4589 27.2424 36.1568 28.7411 34.5595 29.8725L34.0727 30.1996V32.1205C34.0726 32.5808 33.9036 33.0252 33.5977 33.3692C33.2918 33.7132 32.8702 33.933 32.413 33.9869L32.1931 34H26.5545C26.0941 34 25.6498 33.8309 25.3058 33.525C24.9618 33.2191 24.742 32.7976 24.6881 32.3404L24.675 32.1205H22.7954C22.7953 32.5808 22.6263 33.0252 22.3204 33.3692C22.0145 33.7132 21.593 33.933 21.1358 33.9869L20.9159 34H15.2772C14.8169 34 14.3726 33.8309 14.0285 33.525C13.6845 33.2191 13.4647 32.7976 13.4109 32.3404L13.3977 32.1205V30.1996C12.0393 29.3321 10.866 28.2045 9.94541 26.8816C9.02477 25.5587 8.37499 24.0667 8.03349 22.4916C6.92491 22.1622 5.94441 21.4999 5.22491 20.5945C4.50542 19.6891 4.08173 18.5843 4.01128 17.43L4 17.0841V16.1444C4.00053 15.6653 4.18397 15.2045 4.51283 14.8562C4.84169 14.5078 5.29116 14.2982 5.76939 14.2701C6.24762 14.2421 6.71853 14.3977 7.08589 14.7051C7.45325 15.0126 7.68934 15.4488 7.74593 15.9245L7.75908 16.1444V17.0841C7.76159 17.3648 7.81797 17.6248 7.92824 17.8642C8.21467 16.1719 8.85446 14.5589 9.80592 13.1305C10.7574 11.702 11.9992 10.49 13.4503 9.5735C13.317 8.3903 13.4349 7.19227 13.7965 6.05781C14.1581 4.92334 14.7551 3.878 15.5486 2.99019C16.342 2.10237 17.3139 1.39208 18.4008 0.905798C19.4877 0.419514 20.6649 0.168191 21.8556 0.168274ZM32.1931 10.0922L27.0093 11.3891L26.7838 11.4324L26.5545 11.4455H19.9761C18.0756 11.4443 16.2301 12.0831 14.7372 13.259C13.2442 14.4349 12.1908 16.0794 11.7467 17.9272C11.3027 19.7751 11.4939 21.7186 12.2895 23.4445C13.0852 25.1704 14.4389 26.578 16.1324 27.4404C16.4053 27.5799 16.6399 27.784 16.8158 28.035C16.9917 28.2859 17.1036 28.5761 17.1418 28.8801L17.1568 29.1132V30.2409H19.0363C19.0364 29.7806 19.2054 29.3362 19.5113 28.9922C19.8172 28.6482 20.2388 28.4284 20.696 28.3745L20.9159 28.3614H26.5545C27.0149 28.3614 27.4592 28.5305 27.8032 28.8364C28.1472 29.1423 28.367 29.5638 28.4209 30.021L28.434 30.2409H30.3136V29.1132C30.3137 28.7671 30.4095 28.4278 30.5902 28.1326C30.771 27.8374 31.0297 27.5979 31.3379 27.4404C33.0629 26.5578 34.4344 25.1121 35.2248 23.343C35.3658 23.0267 35.5915 22.7554 35.877 22.5592L36.1007 22.4277L37.8317 21.5612V18.9637H37.4427C37.0334 18.9636 36.6354 18.8299 36.309 18.5829C35.9827 18.3359 35.7459 17.9892 35.6346 17.5954C35.1648 15.9418 34.2024 14.4705 32.8754 13.3777C32.5073 13.0736 32.2688 12.6408 32.2082 12.1673L32.1931 11.9286V10.0922ZM30.3136 15.2046C30.8121 15.2046 31.2901 15.4026 31.6426 15.7551C31.9951 16.1076 32.1931 16.5857 32.1931 17.0841C32.1931 17.5826 31.9951 18.0607 31.6426 18.4132C31.2901 18.7657 30.8121 18.9637 30.3136 18.9637C29.8151 18.9637 29.337 18.7657 28.9845 18.4132C28.6321 18.0607 28.434 17.5826 28.434 17.0841C28.434 16.5857 28.6321 16.1076 28.9845 15.7551C29.337 15.4026 29.8151 15.2046 30.3136 15.2046ZM21.8556 3.92736C20.7172 3.92735 19.6174 4.34067 18.7608 5.09049C17.9042 5.84032 17.3489 6.87565 17.1981 8.00408C18.1089 7.79224 19.041 7.68566 19.9761 7.68644H26.3233L26.4549 7.65449C26.232 6.59998 25.6534 5.65416 24.816 4.97558C23.9786 4.297 22.9334 3.92691 21.8556 3.92736Z" fill="#F69E9E"/>
</g>
<defs>
<filter id="filter0_d_4219_5297" x="0" y="0.168274" width="45.5908" height="41.8317" filterUnits="userSpaceOnUse" color-interpolation-filters="sRGB">
<feFlood flood-opacity="0" result="BackgroundImageFix"/>
<feColorMatrix in="SourceAlpha" type="matrix" values="0 0 0 0 0 0 0 0 0 0 0 0 0 0 0 0 0 0 127 0" result="hardAlpha"/>
<feOffset dy="4"/>
<feGaussianBlur stdDeviation="2"/>
<feComposite in2="hardAlpha" operator="out"/>
<feColorMatrix type="matrix" values="0 0 0 0 0 0 0 0 0 0 0 0 0 0 0 0 0 0 0.25 0"/>
<feBlend mode="normal" in2="BackgroundImageFix" result="effect1_dropShadow_4219_5297"/>
<feBlend mode="normal" in="SourceGraphic" in2="effect1_dropShadow_4219_5297" result="shape"/>
</filter>
</defs>
</svg>
